<?xml version="1.0" standalone="no"?>
<!DOCTYPE svg PUBLIC "-//W3C//DTD SVG 20010904//EN"
 "http://www.w3.org/TR/2001/REC-SVG-20010904/DTD/svg10.dtd">
<svg version="1.0" xmlns="http://www.w3.org/2000/svg"
 width="121.000000pt" height="121.000000pt" viewBox="0 0 121.000000 121.000000"
 preserveAspectRatio="xMidYMid meet">
<metadata>
Created by potrace 1.11, written by Peter Selinger 2001-2013
</metadata>
<g transform="translate(0.000000,121.000000) scale(0.100000,-0.100000)"
fill="#000000" stroke="none">
<path d="M505 1190 c-184 -33 -345 -149 -429 -310 -52 -99 -66 -159 -66 -280
0 -172 53 -303 170 -420 285 -285 772 -207 950 152 94 191 86 394 -22 578
l-33 55 -5 -185 -5 -185 -53 -98 c-37 -69 -50 -105 -46 -121 4 -17 -9 -49 -43
-110 -44 -80 -50 -87 -74 -82 -20 4 -29 -1 -43 -25 -9 -16 -22 -29 -27 -29
-19 0 -21 30 -5 56 16 24 16 26 -4 42 l-21 17 51 93 c34 61 58 92 69 92 11 0
34 30 67 87 l49 88 3 225 3 225 -63 42 c-117 78 -292 116 -423 93z m-71 -144
c-2 -6 -23 -21 -47 -34 -71 -38 -173 -144 -196 -205 -12 -30 -32 -35 -50 -13
-19 23 20 88 108 177 86 88 157 128 178 102 6 -8 10 -20 7 -27z m34 -83 c-2
-9 -20 -26 -42 -38 -47 -26 -142 -118 -162 -157 -16 -30 -44 -38 -44 -13 0 9
6 28 14 43 16 29 112 126 161 160 37 26 78 29 73 5z m32 -83 c0 -5 -6 -10 -13
-10 -13 0 -75 -59 -142 -135 -31 -35 -35 -37 -35 -18 0 29 142 173 170 173 11
0 20 -4 20 -10z m220 -95 c139 -92 128 -303 -19 -378 -153 -77 -320 22 -321
191 0 89 44 161 123 202 63 32 156 25 217 -15z"/>
<path d="M530 759 c-64 -27 -100 -85 -100 -162 0 -95 61 -158 157 -164 47 -3
66 1 98 19 47 27 85 94 85 148 -1 50 -32 113 -71 140 -37 27 -127 37 -169 19z
m122 -122 c27 -42 -7 -97 -58 -97 -65 0 -83 87 -24 117 25 12 68 2 82 -20z"/>
</g>
</svg>
